<?xml version="1.0" standalone="no"?>
<!DOCTYPE svg PUBLIC "-//W3C//DTD SVG 20010904//EN"
 "http://www.w3.org/TR/2001/REC-SVG-20010904/DTD/svg10.dtd">
<svg version="1.0" xmlns="http://www.w3.org/2000/svg"
 width="1600.000000pt" height="788.000000pt" viewBox="0 0 1600.000000 788.000000"
 preserveAspectRatio="xMidYMid meet">

<g transform="translate(0.000000,788.000000) scale(0.100000,-0.100000)"
fill="#000000" stroke="none">
<path d="M0 3940 l0 -3940 8000 0 8000 0 0 3940 0 3940 -8000 0 -8000 0 0
-3940z m3328 -2297 l3 -133 149 0 150 0 0 135 0 136 83 -3 82 -3 0 -350 0
-350 -82 -3 -83 -3 0 146 0 145 -150 0 -150 0 0 -145 0 -145 -85 0 -85 0 0
355 0 356 83 -3 82 -3 3 -132z m1006 126 c13 -6 35 -32 49 -58 25 -47 267
-622 267 -635 0 -4 -39 -5 -87 -4 l-87 3 -105 268 -105 268 -106 -268 -106
-268 -87 -3 c-48 -1 -87 0 -87 3 0 11 253 612 272 647 11 20 30 41 42 46 29
14 109 15 140 1z m496 -241 c51 -139 95 -259 99 -266 5 -9 20 20 40 75 18 48
62 168 98 266 l66 177 89 0 c68 0 89 -3 85 -12 -169 -430 -262 -649 -282 -668
-49 -46 -141 -42 -186 8 -15 17 -76 156 -152 345 -70 174 -127 319 -127 322 0
3 40 5 88 5 l89 0 93 -252z m1130 182 l0 -70 -197 -2 -198 -3 -3 -67 -3 -68
196 0 195 0 0 -70 0 -70 -195 0 -196 0 3 -72 3 -73 198 -3 197 -2 0 -70 0 -70
-235 0 c-269 0 -296 5 -320 64 -19 46 -21 521 -2 576 22 64 48 70 320 70 l237
0 0 -70z m282 -212 l3 -283 198 -3 197 -2 0 -70 0 -70 -236 0 c-257 0 -290 6
-313 56 -7 17 -11 126 -11 339 l0 315 80 0 80 0 2 -282z m1038 213 l0 -70
-191 -3 c-175 -3 -192 -5 -205 -22 -18 -25 -18 -67 0 -91 12 -17 32 -20 153
-26 88 -4 151 -12 173 -21 115 -49 147 -223 62 -337 -45 -60 -70 -65 -322 -66
l-225 0 -3 67 -3 67 190 3 c169 3 191 5 210 22 31 28 28 79 -5 105 -23 18 -41
21 -125 21 -54 0 -121 5 -150 11 -204 44 -192 366 16 400 22 4 127 7 233 8
l192 1 0 -69z m550 42 c24 -22 61 -99 160 -336 71 -170 132 -317 135 -328 6
-19 2 -20 -81 -17 l-88 3 -106 268 -105 267 -106 -267 -105 -268 -87 -3 c-48
-1 -87 0 -87 4 0 9 248 601 270 644 23 45 50 58 117 59 44 1 58 -4 83 -26z
m598 2 c16 -13 90 -120 163 -237 l134 -212 3 237 2 237 80 0 80 0 0 -315 c0
-338 -3 -360 -52 -386 -34 -19 -116 -14 -147 8 -14 11 -89 119 -166 240 l-140
221 -3 -239 -2 -239 -80 0 -80 0 0 326 0 326 29 29 c26 26 36 29 89 29 50 0
66 -4 90 -25z"/>
</g>
</svg>
